HIERARCHY
ROOT Root
{
  OFFSET 0.0 0.0 0.0
  CHANNELS 6 Xposition Yposition Zposition Zrotation Yrotation Xrotation
  JOINT Hips
  {
    OFFSET 0.0 100.0 0.0
    CHANNELS 6 Xposition Yposition Zposition Zrotation Yrotation Xrotation
    JOINT Spine1
    {
      OFFSET 5.003913 -0.037094 -0.013727
      CHANNELS 3 Zrotation Yrotation Xrotation
      JOINT Spine2
      {
        OFFSET 7.125363 -1e-06 0.0
        CHANNELS 3 Zrotation Yrotation Xrotation
        JOINT Chest
        {
          OFFSET 7.594027 1e-06 0.0
          CHANNELS 3 Zrotation Yrotation Xrotation
          JOINT Neck1
          {
            OFFSET 26.313086 -0.460272 -0.181672
            CHANNELS 3 Zrotation Yrotation Xrotation
            JOINT Neck2
            {
              OFFSET 8.045911 0.0 0.0
              CHANNELS 3 Zrotation Yrotation Xrotation
              JOINT Head
              {
                OFFSET 6.432774 0.0 0.0
                CHANNELS 3 Zrotation Yrotation Xrotation
                JOINT HeadEnd
                {
                  OFFSET 16.169773 0.06451 0.00362
                  CHANNELS 3 Zrotation Yrotation Xrotation
                }
                JOINT Jaw
                {
                  OFFSET 0.108741 3.12938 0.002639
                  CHANNELS 3 Zrotation Yrotation Xrotation
                }
                JOINT LeftEye
                {
                  OFFSET 4.45173 8.166359 3.206392
                  CHANNELS 3 Zrotation Yrotation Xrotation
                }
                JOINT RightEye
                {
                  OFFSET 4.436895 8.135758 -3.222429
                  CHANNELS 3 Zrotation Yrotation Xrotation
                }
              }
            }
          }
          JOINT LeftShoulder
          {
            OFFSET 23.218927 5.195579 1.621656
            CHANNELS 3 Zrotation Yrotation Xrotation
            JOINT LeftArm
            {
              OFFSET 15.902118 2e-06 -2e-06
              CHANNELS 3 Zrotation Yrotation Xrotation
              JOINT LeftForeArm
              {
                OFFSET 28.739307 0.0 -1e-06
                CHANNELS 3 Zrotation Yrotation Xrotation
                JOINT LeftHand
                {
                  OFFSET 27.093981 -4e-06 0.0
                  CHANNELS 3 Zrotation Yrotation Xrotation
                  JOINT LeftHandThumb1
                  {
                    OFFSET 2.276781 3.380274 0.83384
                    CHANNELS 3 Zrotation Yrotation Xrotation
                    JOINT LeftHandThumb2
                    {
                      OFFSET 4.705309 -1e-06 -1e-06
                      CHANNELS 3 Zrotation Yrotation Xrotation
                      JOINT LeftHandThumb3
                      {
                        OFFSET 2.798515 0.0 3e-06
                        CHANNELS 3 Zrotation Yrotation Xrotation
                        JOINT LeftHandThumbEnd
                        {
                          OFFSET 3.180793 4e-06 -4e-06
                          CHANNELS 3 Zrotation Yrotation Xrotation
                        }
                      }
                    }
                  }
                  JOINT LeftHandIndex1
                  {
                    OFFSET 3.247786 2.352677 0.137192
                    CHANNELS 3 Zrotation Yrotation Xrotation
                    JOINT LeftHandIndex2
                    {
                      OFFSET 6.367095 1e-06 0.0
                      CHANNELS 3 Zrotation Yrotation Xrotation
                      JOINT LeftHandIndex3
                      {
                        OFFSET 3.662364 0.0 0.0
                        CHANNELS 3 Zrotation Yrotation Xrotation
                        JOINT LeftHandIndex4
                        {
                          OFFSET 2.329242 4e-06 -4e-06
                          CHANNELS 3 Zrotation Yrotation Xrotation
                          JOINT LeftHandIndexEnd
                          {
                            OFFSET 2.767823 1e-06 0.0
                            CHANNELS 3 Zrotation Yrotation Xrotation
                          }
                        }
                      }
                    }
                  }
                  JOINT LeftHandMiddle1
                  {
                    OFFSET 3.163612 0.945023 -0.406112
                    CHANNELS 3 Zrotation Yrotation Xrotation
                    JOINT LeftHandMiddle2
                    {
                      OFFSET 6.276789 3e-06 0.0
                      CHANNELS 3 Zrotation Yrotation Xrotation
                      JOINT LeftHandMiddle3
                      {
                        OFFSET 4.35652 -1e-06 4e-06
                        CHANNELS 3 Zrotation Yrotation Xrotation
                        JOINT LeftHandMiddle4
                        {
                          OFFSET 2.996877 0.0 8e-06
                          CHANNELS 3 Zrotation Yrotation Xrotation
                          JOINT LeftHandMiddleEnd
                          {
                            OFFSET 2.323256 3e-06 -4e-06
                            CHANNELS 3 Zrotation Yrotation Xrotation
                          }
                        }
                      }
                    }
                  }
                  JOINT LeftHandRing1
                  {
                    OFFSET 2.882606 -0.309162 0.107445
                    CHANNELS 3 Zrotation Yrotation Xrotation
                    JOINT LeftHandRing2
                    {
                      OFFSET 6.033198 0.0 4e-06
                      CHANNELS 3 Zrotation Yrotation Xrotation
                      JOINT LeftHandRing3
                      {
                        OFFSET 4.350578 3e-06 0.0
                        CHANNELS 3 Zrotation Yrotation Xrotation
                        JOINT LeftHandRing4
                        {
                          OFFSET 2.651321 2e-06 -7e-06
                          CHANNELS 3 Zrotation Yrotation Xrotation
                          JOINT LeftHandRingEnd
                          {
                            OFFSET 1.937663 1e-06 -4e-06
                            CHANNELS 3 Zrotation Yrotation Xrotation
                          }
                        }
                      }
                    }
                  }
                  JOINT LeftHandPinky1
                  {
                    OFFSET 2.865315 -1.525436 0.575687
                    CHANNELS 3 Zrotation Yrotation Xrotation
                    JOINT LeftHandPinky2
                    {
                      OFFSET 5.54936 1e-06 -8e-06
                      CHANNELS 3 Zrotation Yrotation Xrotation
                      JOINT LeftHandPinky3
                      {
                        OFFSET 3.070974 0.0 -4e-06
                        CHANNELS 3 Zrotation Yrotation Xrotation
                        JOINT LeftHandPinky4
                        {
                          OFFSET 1.549672 1e-06 0.0
                          CHANNELS 3 Zrotation Yrotation Xrotation
                          JOINT LeftHandPinkyEnd
                          {
                            OFFSET 1.952123 0.0 0.0
                            CHANNELS 3 Zrotation Yrotation Xrotation
                          }
                        }
                      }
                    }
                  }
                }
              }
            }
          }
          JOINT RightShoulder
          {
            OFFSET 23.161716 5.296122 -1.380114
            CHANNELS 3 Zrotation Yrotation Xrotation
            JOINT RightArm
            {
              OFFSET -16.027195 -2e-06 1.1e-05
              CHANNELS 3 Zrotation Yrotation Xrotation
              JOINT RightForeArm
              {
                OFFSET -28.736639 4e-06 2e-06
                CHANNELS 3 Zrotation Yrotation Xrotation
                JOINT RightHand
                {
                  OFFSET -27.133619 6e-06 0.0
                  CHANNELS 3 Zrotation Yrotation Xrotation
                  JOINT RightHandThumb1
                  {
                    OFFSET -2.274328 -3.351035 -0.83067
                    CHANNELS 3 Zrotation Yrotation Xrotation
                    JOINT RightHandThumb2
                    {
                      OFFSET -4.703594 -3e-06 2e-06
                      CHANNELS 3 Zrotation Yrotation Xrotation
                      JOINT RightHandThumb3
                      {
                        OFFSET -2.794935 -4e-06 -3e-06
                        CHANNELS 3 Zrotation Yrotation Xrotation
                        JOINT RightHandThumbEnd
                        {
                          OFFSET -3.183852 4e-06 1e-06
                          CHANNELS 3 Zrotation Yrotation Xrotation
                        }
                      }
                    }
                  }
                  JOINT RightHandIndex1
                  {
                    OFFSET -3.253496 -2.33755 -0.127667
                    CHANNELS 3 Zrotation Yrotation Xrotation
                    JOINT RightHandIndex2
                    {
                      OFFSET -6.344434 0.0 0.0
                      CHANNELS 3 Zrotation Yrotation Xrotation
                      JOINT RightHandIndex3
                      {
                        OFFSET -3.654871 0.0 -8e-06
                        CHANNELS 3 Zrotation Yrotation Xrotation
                        JOINT RightHandIndex4
                        {
                          OFFSET -2.327586 -1e-06 0.0
                          CHANNELS 3 Zrotation Yrotation Xrotation
                          JOINT RightHandIndexEnd
                          {
                            OFFSET -2.770001 3e-06 8e-06
                            CHANNELS 3 Zrotation Yrotation Xrotation
                          }
                        }
                      }
                    }
                  }
                  JOINT RightHandMiddle1
                  {
                    OFFSET -3.168223 -0.944764 0.411762
                    CHANNELS 3 Zrotation Yrotation Xrotation
                    JOINT RightHandMiddle2
                    {
                      OFFSET -6.266691 -1e-06 -4e-06
                      CHANNELS 3 Zrotation Yrotation Xrotation
                      JOINT RightHandMiddle3
                      {
                        OFFSET -4.348901 0.0 0.0
                        CHANNELS 3 Zrotation Yrotation Xrotation
                        JOINT RightHandMiddle4
                        {
                          OFFSET -3.00024 2e-06 -4e-06
                          CHANNELS 3 Zrotation Yrotation Xrotation
                          JOINT RightHandMiddleEnd
                          {
                            OFFSET -2.321477 -4e-06 -4e-06
                            CHANNELS 3 Zrotation Yrotation Xrotation
                          }
                        }
                      }
                    }
                  }
                  JOINT RightHandRing1
                  {
                    OFFSET -2.885654 0.293261 -0.119232
                    CHANNELS 3 Zrotation Yrotation Xrotation
                    JOINT RightHandRing2
                    {
                      OFFSET -6.032835 -1e-06 -4e-06
                      CHANNELS 3 Zrotation Yrotation Xrotation
                      JOINT RightHandRing3
                      {
                        OFFSET -4.33881 0.0 -4e-06
                        CHANNELS 3 Zrotation Yrotation Xrotation
                        JOINT RightHandRing4
                        {
                          OFFSET -2.654903 -4e-06 -4e-06
                          CHANNELS 3 Zrotation Yrotation Xrotation
                          JOINT RightHandRingEnd
                          {
                            OFFSET -1.935122 0.0 4e-06
                            CHANNELS 3 Zrotation Yrotation Xrotation
                          }
                        }
                      }
                    }
                  }
                  JOINT RightHandPinky1
                  {
                    OFFSET -2.866241 1.503904 -0.60527
                    CHANNELS 3 Zrotation Yrotation Xrotation
                    JOINT RightHandPinky2
                    {
                      OFFSET -5.553177 -2e-06 0.0
                      CHANNELS 3 Zrotation Yrotation Xrotation
                      JOINT RightHandPinky3
                      {
                        OFFSET -3.062664 -1e-06 -4e-06
                        CHANNELS 3 Zrotation Yrotation Xrotation
                        JOINT RightHandPinky4
                        {
                          OFFSET -1.546529 2e-06 4e-06
                          CHANNELS 3 Zrotation Yrotation Xrotation
                          JOINT RightHandPinkyEnd
                          {
                            OFFSET -1.952341 0.0 -4e-06
                            CHANNELS 3 Zrotation Yrotation Xrotation
                          }
                        }
                      }
                    }
                  }
                }
              }
            }
          }
        }
      }
    }
    JOINT LeftLeg
    {
      OFFSET -8.443107 2.567604 10.043214
      CHANNELS 3 Zrotation Yrotation Xrotation
      JOINT LeftShin
      {
        OFFSET 43.229198 1e-06 -1e-06
        CHANNELS 3 Zrotation Yrotation Xrotation
        JOINT LeftFoot
        {
          OFFSET 42.298611 1e-06 1e-06
          CHANNELS 3 Zrotation Yrotation Xrotation
          JOINT LeftToeBase
          {
            OFFSET 14.165858 1e-06 0.0
            CHANNELS 3 Zrotation Yrotation Xrotation
            JOINT LeftToeEnd
            {
              OFFSET 6.7141 -0.234461 0.0
              CHANNELS 3 Zrotation Yrotation Xrotation
            }
          }
        }
      }
    }
    JOINT RightLeg
    {
      OFFSET -8.303923 2.592729 -10.047278
      CHANNELS 3 Zrotation Yrotation Xrotation
      JOINT RightShin
      {
        OFFSET -43.369682 0.0 1e-06
        CHANNELS 3 Zrotation Yrotation Xrotation
        JOINT RightFoot
        {
          OFFSET -42.260784 4e-06 2e-06
          CHANNELS 3 Zrotation Yrotation Xrotation
          JOINT RightToeBase
          {
            OFFSET -14.222245 -2e-06 -1e-06
            CHANNELS 3 Zrotation Yrotation Xrotation
            JOINT RightToeEnd
            {
              OFFSET -6.660062 0.232574 -2e-06
              CHANNELS 3 Zrotation Yrotation Xrotation
            }
          }
        }
      }
    }
  }
}
MOTION
Frames: 4
Frame Time: 0.03333333333333333
0.0 0.0 0.0 0.0 -0.0 0.0 -4.235168 91.269806 -1.568444 90.991875 5.818278 89.591652 3.507937 0.442776 -0.025108 -9.60488 -0.73868 -0.525316 19.633715 -1.372449 -2.734552 27.095245 -7.312155 2.525343 -2.653502 -0.704511 -1.694924 -44.479641 -2.461024 -0.136498 6e-06 0.0 -0.0 0.092761 -0.001763 -0.136531 0.122554 -0.031003 -0.141248 0.077767 0.016419 -0.125371 -136.732544 -67.277962 159.822815 19.799797 -29.735054 14.255992 33.1768 0.007393 0.344792 -0.621402 -4.620921 26.860685 17.636623 -26.322733 52.411182 -19.466656 -14.395594 29.410389 1e-06 -8.77482 -3e-06 16.379866 -17.495646 5.778055 -0.609776 -1.795653 -3.889327 -4.807087 -11.04681 -2.93785 2e-06 -20.976015 0.0 -5.019974 -25.033558 -4.031878 8e-06 -0.0 -0.0 -10.634533 -5.68697 -3.565585 10.57327 -17.922947 -3.113897 2e-06 -13.821206 1e-06 -0.501783 -31.181498 -4.027013 -11.140847 -59.939125 7.181978 -13.982712 -7.150198 -2.87504 13.772727 -8.401489 -3.21824 0.347729 -34.211555 0.771659 -0.96303 -17.733366 2.62102 -0.0 -0.0 -1e-06 -17.34642 -20.095215 -4.201776 21.757555 -1.638374 3.866426 1e-06 -6.338823 2e-06 -1.69759 -22.591743 -6.194005 1e-06 -3e-06 -3e-06 51.281681 -71.57399 151.551804 23.1185 -39.820324 12.690172 38.376656 0.430221 0.293617 -0.885036 5.217149 9.554987 22.182112 -20.375895 49.933327 -16.701817 -16.743532 28.476532 -2e-06 -12.690601 1e-06 16.777159 -17.314369 1.941299 -0.10592 -1.513855 -4.275885 -5.039042 -5.612873 -2.953559 4e-06 -11.020527 -2e-06 -6.111299 -15.895338 -3.840474 0.0 -1e-06 -1e-06 -10.283373 -5.680289 -4.341842 11.028296 -11.302406 -2.372633 -1.384269 -14.238583 -6.320125 -0.625439 -26.924191 -3.827603 -4.043946 -49.400921 -4.17734 -13.708527 -7.363474 -3.720941 18.14115 -14.052739 -3.242674 4e-06 -18.78727 -1e-06 -0.429712 -8.456045 2.555506 -1e-06 -0.0 2e-06 -15.923536 -20.094482 -5.473584 30.419218 -7.190823 1.735925 2e-06 -8.162925 0.0 -1.861901 -22.861469 -6.167945 -0.0 -1e-06 -2e-06 152.866882 -16.238825 -19.460724 46.250492 0.015153 0.025909 -78.506592 -2.358417 -5.252921 -5.547168 1.455759 2.142353 -0.999998 -0.0 -0.0 -10.425374 -7.519732 -20.234343 52.432598 0.12592 -0.138706 -103.716827 -9.658025 -6.776572 -4.590294 0.767437 1.721437 -1.000001 2e-06 0.0 
0.0 0.0 0.0 0.0 -0.0 0.0 -3.877785 91.276031 -0.889867 90.611115 5.726357 89.127861 3.458315 0.308605 -0.073836 -9.649749 -0.745395 -0.444694 19.731422 -1.50773 -2.799924 27.142372 -7.566318 2.537931 -2.646931 -0.77629 -1.508161 -44.23357 -2.378922 -0.195779 7e-06 -0.0 0.0 0.085077 0.000682 -0.103811 0.105326 -0.029611 -0.109051 0.060535 0.019673 -0.092947 -136.591003 -67.179871 159.922867 19.602264 -29.57378 14.007567 33.34594 0.021125 0.410049 -0.75341 -4.876991 27.219564 17.636629 -26.322729 52.411201 -19.46666 -14.395598 29.410389 1e-06 -8.774822 -3e-06 16.385551 -17.478069 5.779533 -0.609777 -1.795652 -3.889328 -4.807088 -11.046807 -2.93785 6e-06 -20.976011 -2e-06 -5.019967 -25.033548 -4.031882 6e-06 -2e-06 -2e-06 -10.634535 -5.686968 -3.565587 10.573275 -17.922947 -3.113903 4e-06 -13.821205 1e-06 -0.501775 -31.181498 -4.027014 -11.04247 -60.039753 7.199478 -13.982716 -7.150197 -2.875043 13.772732 -8.401491 -3.218243 0.347733 -34.211555 0.771654 -0.963028 -17.73337 2.62102 -0.0 2e-06 -0.0 -17.346416 -20.095213 -4.201782 21.757561 -1.638376 3.866431 2e-06 -6.338823 0.0 -1.697588 -22.591745 -6.194008 0.0 -2e-06 -3e-06 51.431412 -71.285446 151.49588 23.054049 -39.865593 12.917857 38.460403 0.472623 0.322541 -0.768839 5.219271 9.3197 22.182114 -20.375896 49.933323 -16.701817 -16.74353 28.476534 -4e-06 -12.690601 -2e-06 16.779995 -17.319086 1.935458 -0.10592 -1.513857 -4.275879 -5.039039 -5.612869 -2.953557 5e-06 -11.020523 -4e-06 -6.111295 -15.89533 -3.840468 0.0 -0.0 -1e-06 -10.283368 -5.680287 -4.341839 11.028293 -11.302406 -2.372632 -1.384267 -14.238579 -6.320124 -0.625435 -26.924183 -3.8276 -4.045998 -49.491409 -4.063983 -13.708522 -7.363475 -3.72094 18.141146 -14.05274 -3.242674 8e-06 -18.78727 -3e-06 -0.429712 -8.456043 2.555506 -0.0 -0.0 -0.0 -15.923532 -20.094482 -5.473583 30.41921 -7.190828 1.735928 3e-06 -8.162925 1e-06 -1.861898 -22.861467 -6.167941 1e-06 -4e-06 -2e-06 153.001404 -16.748848 -19.641096 47.065147 0.048926 0.013753 -79.470161 -2.394319 -5.102235 -5.477753 1.452957 2.142241 -0.999999 0.0 0.0 -9.957965 -7.23381 -19.861042 52.049126 0.136079 -0.140928 -103.778969 -9.517283 -7.044488 -4.714377 0.782244 1.728969 -1.000002 1e-06 -0.0 
0.0 0.0 0.0 0.0 -0.0 0.0 -3.436591 91.295685 -0.111105 90.172386 5.563031 88.674515 3.368864 0.178897 -0.098203 -9.70804 -0.772164 -0.399446 19.817688 -1.628765 -2.800783 27.155033 -7.871477 2.560763 -2.67118 -0.764143 -1.371909 -43.943363 -2.316007 -0.149907 6e-06 0.0 0.0 0.080277 0.004902 -0.087474 0.086664 -0.03188 -0.090743 0.045832 0.029843 -0.079665 -136.513702 -67.057686 159.991135 19.328629 -29.461153 14.046993 33.731354 0.048156 0.451035 -0.797375 -5.097652 27.293892 17.636633 -26.322737 52.411205 -19.466663 -14.395598 29.410395 1e-06 -8.774822 -3e-06 16.441971 -17.549036 5.793212 -0.609777 -1.795653 -3.889327 -4.80709 -11.046811 -2.937851 4e-06 -20.976017 -1e-06 -5.019971 -25.03356 -4.03188 7e-06 -1e-06 1e-06 -10.634535 -5.686972 -3.565588 10.573276 -17.922953 -3.113901 2e-06 -13.821211 2e-06 -0.501778 -31.181507 -4.027017 -11.061977 -60.139153 7.228016 -13.982714 -7.150198 -2.875042 13.772729 -8.401493 -3.218241 0.347733 -34.211555 0.771655 -0.963027 -17.73337 2.62102 -0.0 -1e-06 0.0 -17.34642 -20.095221 -4.201784 21.757557 -1.638375 3.866429 1e-06 -6.338824 1e-06 -1.697589 -22.591751 -6.194009 1e-06 -5e-06 -4e-06 51.35989 -70.995079 151.659363 22.861156 -39.851273 13.379429 38.570747 0.539175 0.326674 -0.639423 5.195666 9.119483 22.182121 -20.375898 49.933334 -16.701815 -16.743528 28.476536 -4e-06 -12.690601 -1e-06 16.745419 -17.276745 1.927891 -0.10592 -1.513855 -4.275884 -5.039041 -5.612871 -2.953556 5e-06 -11.020526 -3e-06 -6.111298 -15.895334 -3.840473 -0.0 -0.0 -0.0 -10.283373 -5.680289 -4.341839 11.028296 -11.302406 -2.372632 -1.384269 -14.238581 -6.320124 -0.625437 -26.924194 -3.827605 -3.995265 -49.454109 -4.031317 -13.708526 -7.363475 -3.720941 18.141151 -14.052741 -3.242675 7e-06 -18.787271 -1e-06 -0.42971 -8.456047 2.555504 -1e-06 0.0 1e-06 -15.923536 -20.094486 -5.47359 30.419218 -7.190827 1.735927 3e-06 -8.162927 -0.0 -1.861898 -22.861473 -6.167943 0.0 -3e-06 -2e-06 153.125839 -17.31329 -19.957798 47.931831 0.061462 -0.004866 -80.534409 -2.470659 -4.844216 -5.40166 1.439426 2.141391 -0.999999 1e-06 0.0 -9.44671 -6.961755 -19.549597 51.582108 0.139568 -0.123702 -103.784081 -9.301744 -7.485647 -4.78255 0.812832 1.738031 -1.000004 0.0 0.0 
0.0 0.0 0.0 0.0 -0.0 0.0 -2.979342 91.378708 0.638649 89.659187 5.37138 88.233696 3.288974 0.095224 -0.108941 -9.76382 -0.789277 -0.343669 19.861765 -1.732306 -2.746081 27.119354 -8.154814 2.590374 -2.710025 -0.745169 -1.199223 -43.742641 -2.237967 -0.089697 6e-06 -1e-06 0.0 0.074773 0.007695 -0.078874 0.062265 -0.0364 -0.080981 0.027754 0.039356 -0.073609 -136.367645 -66.910309 159.900803 19.135159 -29.506273 14.124215 34.131191 0.048549 0.461629 -0.726169 -5.199912 27.32696 17.636625 -26.322727 52.411182 -19.46666 -14.395598 29.410385 0.0 -8.77482 -1e-06 16.499714 -17.648493 5.798182 -0.609776 -1.795652 -3.889327 -4.807087 -11.046809 -2.937849 4e-06 -20.976015 -0.0 -5.019969 -25.033552 -4.03188 7e-06 0.0 -0.0 -10.634531 -5.68697 -3.565589 10.573272 -17.922947 -3.113901 3e-06 -13.821205 1e-06 -0.501777 -31.181498 -4.027015 -11.091374 -60.228786 7.259898 -13.982712 -7.150197 -2.875043 13.772727 -8.40149 -3.218241 0.347732 -34.211544 0.771657 -0.963027 -17.733362 2.621017 1e-06 0.0 -1e-06 -17.346415 -20.095213 -4.201783 21.757555 -1.638374 3.866426 1e-06 -6.338822 0.0 -1.69759 -22.591743 -6.194005 -0.0 -5e-06 -2e-06 51.240646 -70.803101 151.862015 22.663012 -39.820606 14.060872 38.620266 0.600139 0.339837 -0.579827 5.022223 9.053164 22.182116 -20.375891 49.933304 -16.701813 -16.74353 28.47653 -2e-06 -12.690601 -2e-06 16.718113 -17.240019 1.931197 -0.105919 -1.513856 -4.275883 -5.03904 -5.612871 -2.953554 4e-06 -11.020526 -3e-06 -6.111297 -15.895334 -3.840471 -1e-06 -0.0 -0.0 -10.283371 -5.680288 -4.341836 11.028293 -11.302405 -2.372633 -1.38427 -14.23858 -6.32012 -0.625442 -26.924187 -3.827599 -3.955559 -49.411983 -4.01052 -13.708524 -7.363476 -3.720939 18.14115 -14.052739 -3.242676 5e-06 -18.78727 -2e-06 -0.42971 -8.456046 2.555503 -1e-06 -2e-06 0.0 -15.923536 -20.094482 -5.473584 30.41921 -7.190825 1.735927 2e-06 -8.162925 -2e-06 -1.861902 -22.861469 -6.167945 -0.0 -4e-06 -2e-06 153.309555 -17.900126 -20.302818 48.580296 0.060378 -0.026926 -81.476158 -2.553694 -4.629762 -5.318965 1.420306 2.134268 -0.999999 -2e-06 -0.0 -8.876129 -6.571873 -19.24048 50.857933 0.139379 -0.109236 -103.639427 -9.145523 -7.947258 -4.806772 0.837937 1.74314 -1.000001 -1e-06 0.0 
